# Blender v2.76 (sub 0) OBJ File: 'obsidian_pawn.blend'
# www.blender.org
mtllib obsidian_pawn.mtl
o Plain_Pawn
v 8.838830 0.000000 -8.838830
v 8.000000 30.000000 0.000000
v 12.500000 0.000000 0.000000
v -5.656850 30.000000 5.656850
v -8.838830 0.000000 8.838830
v 0.000000 30.000000 8.000000
v 0.000000 30.000000 -8.000000
v 5.656850 30.000000 -5.656850
v 0.000000 0.000000 12.500000
v 0.000000 0.000000 -12.500000
v 8.838830 0.000000 8.838830
v -8.838830 0.000000 -8.838830
v -12.500000 0.000000 0.000000
v -5.656850 30.000000 -5.656850
v -8.000000 30.000000 0.000000
v 5.656850 30.000000 5.656850
v 2.000000 40.000000 0.000000
v 1.414210 40.000000 -1.414210
v 1.847760 40.000000 0.000000
v 1.306560 40.000000 -1.306560
v 0.000000 40.000000 -2.000000
v 0.000000 40.000000 -1.847760
v -1.306560 40.000000 -1.306560
v -1.414210 40.000000 -1.414210
v -1.847760 40.000000 0.000000
v -2.000000 40.000000 0.000000
v 1.414210 40.000000 1.414210
v 1.306560 40.000000 1.306560
v 0.000000 40.000000 1.847760
v 0.000000 40.000000 2.000000
v -1.306560 40.000000 1.306560
v -1.414210 40.000000 1.414210
v 0.000000 40.765400 -1.847760
v 0.000000 41.847801 -0.765367
v 1.306560 40.765400 -1.306560
v 0.541196 41.847801 -0.541196
v 0.765367 41.847801 0.000000
v -0.541196 41.847801 0.541196
v -1.306560 40.765400 1.306560
v 0.000000 41.847801 0.765367
v 1.847760 40.765400 0.000000
v -1.306560 40.765400 -1.306560
v 1.306560 40.765400 1.306560
v -0.541196 41.847801 -0.541196
v -1.847760 40.765400 0.000000
v -0.765367 41.847801 0.000000
v 0.000000 40.765400 1.847760
v 0.541196 41.847801 0.541196
vt 0.853554 0.641764
vt 0.973640 0.173374
vt 1.000000 0.641764
vt 0.379914 0.173374
vt 0.353554 0.641764
vt 0.313640 0.159126
vt 0.813640 0.159126
vt 0.879914 0.173374
vt 0.250000 0.619501
vt 0.750000 0.619501
vt 0.250000 0.641764
vt 0.000000 0.746689
vt 0.103553 0.641764
vt 0.353553 0.746689
vt 0.000000 0.895075
vt 0.353553 0.895075
vt 0.103553 1.000000
vt 0.250000 1.000000
vt 0.000000 0.619501
vt 0.063640 0.159126
vt 0.750000 0.641764
vt 0.603554 0.641764
vt 0.723639 0.173374
vt 0.629914 0.173374
vt 0.500000 0.619501
vt 0.563639 0.159126
vt 0.473640 0.173374
vt 0.500000 0.641764
vt 0.223640 0.173374
vt 0.129914 0.173374
vt 0.938492 0.003562
vt 0.393553 0.641764
vt 0.371013 0.643945
vt 0.370121 0.641764
vt 0.392661 0.643945
vt 0.410121 0.658552
vt 0.407968 0.659455
vt 0.407968 0.681390
vt 0.410121 0.682293
vt 0.392661 0.696900
vt 0.393553 0.699081
vt 0.353553 0.658552
vt 0.355706 0.659455
vt 0.355706 0.681390
vt 0.353553 0.682294
vt 0.371013 0.696900
vt 0.370122 0.699082
vt 0.898492 0.000000
vt 0.688492 0.003562
vt 0.665061 0.003562
vt 0.188492 0.003562
vt 0.148492 0.000000
vt 0.915061 0.003562
vt 0.438492 0.003562
vt 0.165061 0.003562
vt 0.415061 0.003562
vt 0.648492 0.000000
vt 0.398492 0.000000
vt 0.462384 0.657274
vt 0.447077 0.663698
vt 0.447076 0.641764
vt 0.440736 0.657274
vt 0.535611 0.657274
vt 0.555050 0.663698
vt 0.555050 0.672784
vt 0.431769 0.679208
vt 0.425429 0.694718
vt 0.425429 0.672784
vt 0.535611 0.679209
vt 0.574490 0.641764
vt 0.574490 0.663698
vt 0.555050 0.648188
vt 0.481823 0.663698
vt 0.490025 0.679209
vt 0.478575 0.679209
vt 0.493273 0.663698
vt 0.425429 0.641764
vt 0.431769 0.657274
vt 0.410121 0.657274
vt 0.585939 0.641764
vt 0.585939 0.663698
vt 0.555050 0.657274
vt 0.462384 0.679208
vt 0.447077 0.694718
vt 0.440736 0.679208
vt 0.493273 0.641764
vt 0.481823 0.641764
vt 0.524161 0.657274
vt 0.538859 0.641764
vt 0.527409 0.641764
vt 0.524161 0.663698
vt 0.509464 0.679209
vt 0.512712 0.663698
vt 0.520914 0.679209
vt 0.493273 0.648188
vt 0.512712 0.641764
vt 0.524161 0.641764
vt 0.582691 0.679208
vt 0.571242 0.679208
vt 0.493273 0.657274
vt 0.462384 0.648188
vt 0.410121 0.679209
vt 0.425429 0.663698
vt 0.524161 0.679209
vt 0.447077 0.672784
vn 0.915100 0.137300 -0.379100
vn -0.379100 0.137300 0.915100
vn 0.379100 0.137300 -0.915100
vn 0.000000 -1.000000 0.000000
vn 0.915100 0.137300 0.379100
vn -0.379100 0.137300 -0.915100
vn -0.915100 0.137300 -0.379100
vn -0.915100 0.137300 0.379100
vn 0.379100 0.137300 0.915100
vn 0.808000 0.484800 -0.334700
vn 0.000000 1.000000 0.000000
vn 0.334700 0.484800 -0.808000
vn -0.334700 0.484800 -0.808000
vn 0.334700 0.484800 0.808000
vn 0.808000 0.484800 0.334700
vn -0.808000 0.484800 0.334700
vn -0.808000 0.484800 -0.334700
vn -0.334700 0.484800 0.808000
vn 0.281100 0.678600 -0.678600
vn 0.678600 0.678600 -0.281100
vn -0.281100 0.678600 0.678600
vn -0.281100 0.678600 -0.678600
vn 0.923900 0.000000 0.382700
vn 0.678600 0.678600 0.281100
vn -0.382700 0.000000 -0.923900
vn -0.678600 0.678600 -0.281100
vn 0.382700 0.000000 0.923900
vn 0.382700 0.000000 -0.923900
vn -0.382700 0.000000 0.923900
vn -0.678600 0.678600 0.281100
vn -0.923900 0.000000 0.382700
vn -0.923900 0.000000 -0.382700
vn 0.281100 0.678600 0.678600
vn 0.923900 0.000000 -0.382700
usemtl Material.001
s off
f 1/1/1 2/2/1 3/3/1
f 4/4/2 5/5/2 6/6/2
f 1/1/3 7/7/3 8/8/3
f 6/6/2 5/5/2 9/9/2
f 10/10/3 7/7/3 1/1/3
f 11/11/4 1/12/4 3/13/4
f 9/14/4 1/12/4 11/11/4
f 9/14/4 10/15/4 1/12/4
f 5/16/4 10/15/4 9/14/4
f 5/16/4 12/17/4 10/15/4
f 12/17/4 5/16/4 13/18/4
f 1/1/1 8/8/1 2/2/1
f 3/19/5 2/20/5 11/13/5
f 10/21/6 12/22/6 7/23/6
f 7/23/6 12/22/6 14/24/6
f 12/22/7 13/25/7 15/26/7
f 15/27/8 5/5/8 4/4/8
f 15/27/8 13/28/8 5/5/8
f 6/29/9 9/11/9 11/13/9
f 14/24/7 12/22/7 15/26/7
f 16/30/9 6/29/9 11/13/9
f 2/20/5 16/30/5 11/13/5
f 8/8/10 17/31/10 2/2/10
f 18/32/11 19/33/11 17/34/11
f 18/32/11 20/35/11 19/33/11
f 21/36/11 20/35/11 18/32/11
f 21/36/11 22/37/11 20/35/11
f 21/36/11 23/38/11 22/37/11
f 24/39/11 23/38/11 21/36/11
f 24/39/11 25/40/11 23/38/11
f 25/40/11 24/39/11 26/41/11
f 19/33/11 27/42/11 17/34/11
f 28/43/11 27/42/11 19/33/11
f 29/44/11 27/42/11 28/43/11
f 29/44/11 30/45/11 27/42/11
f 31/46/11 30/45/11 29/44/11
f 31/46/11 32/47/11 30/45/11
f 25/40/11 32/47/11 31/46/11
f 32/47/11 25/40/11 26/41/11
f 7/7/12 21/48/12 8/8/12
f 21/49/13 14/24/13 24/50/13
f 30/51/14 6/29/14 16/30/14
f 2/20/15 17/52/15 16/30/15
f 8/8/12 21/48/12 18/53/12
f 7/23/13 14/24/13 21/49/13
f 26/54/16 15/27/16 4/4/16
f 27/55/14 30/51/14 16/30/14
f 17/52/15 27/55/15 16/30/15
f 8/8/10 18/53/10 17/31/10
f 26/54/16 4/4/16 32/56/16
f 24/50/17 14/24/17 26/57/17
f 14/24/17 15/26/17 26/57/17
f 32/56/18 4/4/18 30/58/18
f 30/58/18 4/4/18 6/6/18
f 33/59/19 34/60/19 35/61/19
f 35/61/19 34/60/19 36/62/19
f 35/63/20 36/64/20 37/65/20
f 38/66/21 39/67/21 40/68/21
f 35/63/20 37/65/20 41/69/20
f 33/70/22 42/71/22 34/72/22
f 43/73/23 19/74/23 41/75/23
f 19/74/23 43/73/23 28/76/23
f 41/77/24 37/78/24 43/79/24
f 22/80/25 42/71/25 33/70/25
f 42/71/25 22/80/25 23/81/25
f 34/72/22 42/71/22 44/82/22
f 42/83/26 45/84/26 46/85/26
f 29/86/27 43/73/27 47/87/27
f 43/73/27 29/86/27 28/76/27
f 20/88/28 33/89/28 35/63/28
f 33/89/28 20/88/28 22/90/28
f 31/91/29 47/92/29 39/93/29
f 47/92/29 31/91/29 29/94/29
f 46/95/30 45/96/30 39/93/30
f 31/91/31 45/96/31 25/97/31
f 45/96/31 31/91/31 39/93/31
f 25/98/32 42/71/32 23/81/32
f 42/71/32 25/98/32 45/99/32
f 46/95/30 39/93/30 38/100/30
f 40/101/33 47/87/33 43/73/33
f 40/68/21 39/67/21 47/102/21
f 48/59/33 40/101/33 43/73/33
f 37/78/24 48/103/24 43/79/24
f 41/69/34 20/88/34 35/63/34
f 20/88/34 41/69/34 19/104/34
f 44/105/26 42/83/26 46/85/26
f 36/62/11 48/103/11 37/78/11
f 34/60/11 48/103/11 36/62/11
f 34/60/11 40/68/11 48/103/11
f 44/105/11 40/68/11 34/60/11
f 44/105/11 38/66/11 40/68/11
f 38/66/11 44/105/11 46/85/11
