# Blender v2.76 (sub 0) OBJ File: ''
# www.blender.org
mtllib textured_granite_king.mtl
o Poly_King
v -17.427099 70.000000 1.763360
v -15.809000 1.000000 8.087780
v -12.427100 70.000000 5.763360
v -20.809000 1.000000 0.587785
v -18.000000 70.000000 0.000000
v -14.927100 80.000000 1.763360
v -15.500000 80.000000 0.000000
v -10.927100 70.000000 6.853170
v -13.427100 80.000000 2.853170
v -0.809017 1.000000 13.087800
v -15.809000 0.000000 8.087780
v -0.809017 0.000000 13.087800
v -20.809000 0.000000 0.587785
v -20.809000 1.000000 -0.587785
v -20.809000 0.000000 -0.587785
v -14.927100 80.000000 -1.763360
v -17.427099 70.000000 -1.763360
v -14.927100 81.763397 0.000000
v -14.463500 81.763397 1.426580
v -13.250000 81.763397 2.308260
v -0.927051 90.000000 2.853170
v -0.750000 91.763397 2.308260
v -0.927051 70.000000 7.853170
v 0.309017 1.000000 13.451100
v 0.309017 0.000000 13.451100
v -15.809000 0.000000 -8.087780
v -0.809017 0.000000 -13.087800
v 0.309017 0.000000 -13.451100
v 15.309000 0.000000 -8.451060
v 16.000000 0.000000 -7.500000
v 21.000000 0.000000 0.000000
v 16.000000 0.000000 7.500000
v 15.309000 0.000000 8.451060
v -15.809000 1.000000 -8.087780
v -12.427100 70.000000 -5.763360
v -13.427100 80.000000 -2.853170
v -10.927100 70.000000 -6.853170
v -13.250000 81.763397 -2.308260
v -14.463500 81.763397 -1.426580
v -2.427050 91.763397 0.000000
v -1.963520 91.763397 -1.426580
v -1.963520 91.763397 1.426580
v -0.286475 92.853203 0.881678
v 0.750000 91.763397 2.308260
v 0.286475 92.853203 0.881678
v 0.927051 90.000000 2.853170
v 0.927051 70.000000 7.853170
v 10.927100 70.000000 6.853170
v 15.309000 1.000000 8.451060
v 16.000000 1.000000 7.500000
v 21.000000 1.000000 0.000000
v 16.000000 1.000000 -7.500000
v 15.309000 1.000000 -8.451060
v 0.309017 1.000000 -13.451100
v -0.809017 1.000000 -13.087800
v -0.927051 70.000000 -7.853170
v -0.927051 90.000000 -2.853170
v -0.750000 91.763397 -2.308260
v -0.750000 92.853203 -0.544907
v -0.286475 92.853203 -0.881678
v -0.750000 92.853203 0.544907
v -0.927051 92.853203 0.000000
v 0.750000 92.853203 0.544907
v 0.927051 92.853203 0.000000
v 0.750000 92.853203 -0.544907
v 0.286475 92.853203 -0.881678
v 1.963520 91.763397 1.426580
v 13.250000 81.763397 2.308260
v 14.463500 81.763397 1.426580
v 13.427100 80.000000 2.853170
v 12.427100 70.000000 5.763360
v 14.927100 80.000000 1.763360
v 17.427099 70.000000 1.763360
v 18.000000 70.000000 0.000000
v 17.427099 70.000000 -1.763360
v 12.427100 70.000000 -5.763360
v 10.927100 70.000000 -6.853170
v 0.927051 70.000000 -7.853170
v 0.927051 90.000000 -2.853170
v 0.750000 91.763397 -2.308260
v 1.963520 91.763397 -1.426580
v 2.427050 91.763397 0.000000
v 14.927100 81.763397 0.000000
v 15.500000 80.000000 0.000000
v 14.927100 80.000000 -1.763360
v 13.427100 80.000000 -2.853170
v 13.250000 81.763397 -2.308260
v 14.463500 81.763397 -1.426580
vt 0.972215 0.250407
vt 0.919305 0.986516
vt 0.928369 0.246300
vt 0.990725 0.989339
vt 0.987521 0.250399
vt 0.965918 0.141012
vt 0.981223 0.141004
vt 0.916084 0.245027
vt 0.953632 0.139740
vt 0.310375 0.957462
vt 0.203166 0.976640
vt 0.264846 0.231443
vt 0.310433 0.967995
vt 0.203224 0.987173
vt 0.919318 0.997177
vt 0.990739 1.000000
vt 0.999987 0.988908
vt 1.000000 0.999569
vt 0.993702 0.139718
vt 1.000000 0.249113
vt 0.979787 0.121566
vt 0.967404 0.121573
vt 0.957465 0.120543
vt 0.274779 0.116844
vt 0.175181 0.019506
vt 0.172411 0.000000
vt 0.272009 0.097338
vt 0.187952 0.239753
vt 0.195154 0.978052
vt 0.195212 0.988585
vt 0.760210 0.000000
vt 0.832001 0.025437
vt 0.751003 0.003987
vt 0.910320 0.161100
vt 0.916084 0.171244
vt 0.916084 0.340824
vt 0.910439 0.351080
vt 0.864754 0.427391
vt 0.792962 0.401955
vt 0.783710 0.398149
vt 0.705392 0.262486
vt 0.705318 0.249878
vt 0.705318 0.080298
vt 0.310433 0.969086
vt 0.367628 0.978990
vt 0.310479 0.979661
vt 0.367674 0.989565
vt 0.336773 0.239506
vt 0.385742 0.243467
vt 0.356095 0.132343
vt 0.370527 0.133344
vt 0.400174 0.244469
vt 0.370567 0.113671
vt 0.358891 0.112861
vt 0.989882 0.120526
vt 0.724374 0.747583
vt 0.724374 0.613518
vt 0.736151 0.608546
vt 0.736151 0.742611
vt 0.712597 0.742611
vt 0.712597 0.608546
vt 0.926501 0.000000
vt 0.936441 0.001030
vt 0.705318 0.595531
vt 0.717095 0.590560
vt 0.705318 0.579443
vt 0.717095 0.584415
vt 0.160493 0.020691
vt 0.160528 0.000959
vt 0.173265 0.240939
vt 0.091725 0.245414
vt 0.064714 0.978052
vt 0.064772 0.988585
vt 0.057089 0.987203
vt 0.057031 0.976670
vt 0.000058 0.976015
vt 0.000000 0.965482
vt 0.695727 0.002413
vt 0.695619 0.013075
vt 0.621684 0.010663
vt 0.621792 0.000000
vt 0.705318 0.002780
vt 0.705210 0.013443
vt 0.507786 0.978974
vt 0.614739 0.961996
vt 0.507832 0.989549
vt 0.614785 0.972571
vt 0.498084 0.978990
vt 0.498131 0.989565
vt 0.481661 0.240507
vt 0.468986 0.020522
vt 0.469025 0.000849
vt 0.457350 0.000039
vt 0.728872 0.595531
vt 0.731652 0.590560
vt 0.743429 0.595531
vt 0.719875 0.595531
vt 0.724374 0.597430
vt 0.719875 0.579443
vt 0.724374 0.577545
vt 0.728872 0.579443
vt 0.731652 0.584415
vt 0.712597 0.566428
vt 0.062086 0.114279
vt 0.050425 0.113364
vt 0.148867 0.000044
vt 0.062051 0.134011
vt 0.077311 0.244283
vt 0.047637 0.132880
vt 0.028411 0.239808
vt 0.614785 0.750970
vt 0.625563 0.749642
vt 0.640670 0.749555
vt 0.688917 0.753372
vt 0.702582 0.754561
vt 0.573121 0.232101
vt 0.496334 0.239458
vt 0.483659 0.019473
vt 0.480896 0.000000
vt 0.743429 0.579443
vt 0.736151 0.566428
vt 0.724374 0.561457
vt 0.712597 0.432364
vt 0.724374 0.427391
vt 0.627182 0.879478
vt 0.623149 0.860308
vt 0.635901 0.878403
vt 0.633927 0.858979
vt 0.649034 0.858893
vt 0.662699 0.860082
vt 0.583042 0.118147
vt 0.580278 0.098674
vt 0.694263 0.998513
vt 0.648123 0.878333
vt 0.705318 0.999475
vt 0.659178 0.879295
vt 0.736151 0.432364
vn -0.623700 0.056800 0.779600
vn -0.831600 0.031300 0.554400
vn -0.950300 0.041300 0.308700
vn -0.925300 0.231300 0.300600
vn -0.617200 0.154300 0.771500
vn -0.578800 0.174000 0.796700
vn -0.586900 0.056000 0.807700
vn -0.316000 0.039300 0.947900
vn -0.316200 0.000000 0.948700
vn -0.832100 0.000000 0.554700
vn -1.000000 0.000000 0.000000
vn -0.999200 0.040700 0.000000
vn -0.925300 0.231300 -0.300600
vn -0.950300 0.041300 -0.308700
vn -0.908700 0.295200 -0.295200
vn -0.908700 0.295200 0.295200
vn -0.908600 0.295300 0.295300
vn -0.561600 0.295300 0.772900
vn -0.561600 0.295300 0.773000
vn -0.246900 0.308600 0.918600
vn -0.245300 0.306600 0.919700
vn -0.096600 0.241400 0.965600
vn -0.099200 0.078700 0.992000
vn -0.308800 0.040600 0.950300
vn -0.309000 0.000000 0.951000
vn 0.000000 -1.000000 0.000000
vn -0.832100 0.000000 -0.554700
vn -0.831600 0.031300 -0.554400
vn -0.623700 0.056800 -0.779600
vn -0.617200 0.154300 -0.771500
vn -0.578800 0.174000 -0.796700
vn -0.561600 0.295300 -0.773000
vn -0.561600 0.295300 -0.772900
vn -0.908600 0.295300 -0.295300
vn -0.612200 0.765300 -0.198900
vn -0.612200 0.765300 -0.199000
vn -0.612200 0.765300 0.199000
vn -0.612200 0.765300 0.198900
vn -0.473700 0.592100 0.652000
vn -0.356800 0.794700 0.491100
vn 0.000000 0.794700 0.607100
vn 0.000000 0.295200 0.955400
vn 0.000000 0.242500 0.970100
vn 0.000000 0.080900 0.996700
vn 0.099200 0.079600 0.991900
vn 0.316000 0.042000 0.947800
vn 0.316200 0.000000 0.948700
vn 0.809000 0.000000 0.587800
vn 0.832100 0.000000 0.554700
vn 0.832100 0.000000 -0.554700
vn 0.809000 0.000000 -0.587800
vn 0.316200 0.000000 -0.948700
vn -0.309000 0.000000 -0.951000
vn -0.316200 0.000000 -0.948700
vn -0.316000 0.039300 -0.947900
vn -0.586900 0.056000 -0.807700
vn -0.308800 0.040600 -0.950300
vn -0.099200 0.078700 -0.992000
vn -0.096600 0.241400 -0.965600
vn -0.245300 0.306600 -0.919700
vn -0.246900 0.308600 -0.918600
vn -0.473700 0.592100 -0.652000
vn -0.577300 0.794700 -0.187600
vn -0.356800 0.794700 -0.491100
vn -0.577300 0.794700 0.187600
vn 0.000000 1.000000 0.000000
vn 0.356800 0.794700 0.491100
vn 0.473700 0.592100 0.651900
vn 0.473700 0.592100 0.652000
vn 0.246900 0.308600 0.918600
vn 0.245300 0.306600 0.919700
vn 0.096600 0.241400 0.965600
vn 0.578800 0.174000 0.796700
vn 0.586900 0.056000 0.807700
vn 0.623700 0.056400 0.779600
vn 0.808600 0.032100 0.587500
vn 0.831700 0.028900 0.554500
vn 0.950300 0.041300 0.308700
vn 0.950300 0.041300 -0.308700
vn 0.831700 0.028900 -0.554500
vn 0.808600 0.032100 -0.587500
vn 0.623700 0.056400 -0.779600
vn 0.586900 0.056000 -0.807700
vn 0.316000 0.042000 -0.947800
vn 0.099200 0.079600 -0.991900
vn 0.000000 0.080900 -0.996700
vn 0.000000 0.242500 -0.970100
vn 0.000000 0.295200 -0.955400
vn 0.000000 0.794700 -0.607100
vn 0.356800 0.794700 -0.491100
vn 0.577300 0.794700 -0.187600
vn 0.577300 0.794700 0.187600
vn 0.612200 0.765300 0.198900
vn 0.908600 0.295300 0.295300
vn 0.561600 0.295300 0.772900
vn 0.561600 0.295300 0.773000
vn 0.925300 0.231300 0.300600
vn 0.617200 0.154300 0.771500
vn 0.908700 0.295200 0.295200
vn 0.925300 0.231300 -0.300600
vn 0.617200 0.154300 -0.771500
vn 0.578800 0.174000 -0.796700
vn 0.245300 0.306600 -0.919700
vn 0.096600 0.241400 -0.965600
vn 0.246900 0.308600 -0.918600
vn 0.473700 0.592100 -0.652000
vn 0.473700 0.592100 -0.651900
vn 0.612200 0.765300 -0.198900
vn 0.612200 0.765300 -0.199000
vn 0.908600 0.295300 -0.295300
vn 0.908700 0.295200 -0.295200
vn 0.561600 0.295300 -0.772900
vn 0.561600 0.295300 -0.773000
usemtl Material.001
s off
f 1/1/1 2/2/1 3/3/1
f 4/4/2 2/2/2 1/1/2
f 4/4/3 1/1/3 5/5/3
f 1/1/4 6/6/4 5/5/4
f 5/5/4 6/6/4 7/7/4
f 1/1/5 3/3/5 6/6/5
f 6/6/6 3/3/6 8/8/6
f 9/9/6 6/6/6 8/8/6
f 2/2/7 8/8/7 3/3/7
f 2/10/8 10/11/8 8/12/8
f 11/13/9 12/14/9 10/11/9
f 2/10/9 11/13/9 10/11/9
f 11/15/10 2/2/10 13/16/10
f 13/16/10 2/2/10 4/4/10
f 4/4/11 14/17/11 13/16/11
f 13/16/11 14/17/11 15/18/11
f 4/4/12 5/5/12 14/17/12
f 7/7/13 16/19/13 5/5/13
f 5/5/13 16/19/13 17/20/13
f 14/17/14 5/5/14 17/20/14
f 7/7/15 18/21/15 16/19/15
f 7/7/16 6/6/16 18/21/16
f 6/6/17 19/22/17 18/21/17
f 6/6/18 20/23/18 19/22/18
f 6/6/19 9/9/19 20/23/19
f 9/24/20 21/25/20 22/26/20
f 20/27/20 9/24/20 22/26/20
f 9/24/21 8/12/21 21/25/21
f 8/12/22 23/28/22 21/25/22
f 8/12/23 24/29/23 23/28/23
f 8/12/24 10/11/24 24/29/24
f 12/14/25 25/30/25 24/29/25
f 10/11/25 12/14/25 24/29/25
f 15/31/26 26/32/26 13/33/26
f 13/33/26 26/32/26 27/34/26
f 13/33/26 27/34/26 28/35/26
f 13/33/26 28/35/26 29/36/26
f 13/33/26 29/36/26 30/37/26
f 13/33/26 30/37/26 31/38/26
f 13/33/26 31/38/26 32/39/26
f 13/33/26 32/39/26 33/40/26
f 13/33/26 33/40/26 25/41/26
f 13/33/26 25/41/26 12/42/26
f 13/33/26 12/42/26 11/43/26
f 14/44/27 34/45/27 15/46/27
f 15/46/27 34/45/27 26/47/27
f 14/44/28 17/48/28 34/45/28
f 17/48/29 35/49/29 34/45/29
f 17/48/30 16/50/30 35/49/30
f 36/51/31 37/52/31 16/50/31
f 16/50/31 37/52/31 35/49/31
f 16/50/32 38/53/32 36/51/32
f 16/50/33 39/54/33 38/53/33
f 18/21/34 39/55/34 16/19/34
f 18/56/35 40/57/35 41/58/35
f 39/59/36 18/56/36 41/58/36
f 18/56/37 19/60/37 42/61/37
f 40/57/38 18/56/38 42/61/38
f 19/22/39 20/23/39 22/62/39
f 42/63/39 19/22/39 22/62/39
f 42/61/40 22/64/40 43/65/40
f 22/64/41 44/66/41 45/67/41
f 43/65/41 22/64/41 45/67/41
f 21/25/42 46/68/42 44/69/42
f 22/26/42 21/25/42 44/69/42
f 23/28/43 47/70/43 46/68/43
f 21/25/43 23/28/43 46/68/43
f 23/28/44 24/29/44 47/70/44
f 24/29/45 48/71/45 47/70/45
f 24/29/46 49/72/46 48/71/46
f 25/30/47 33/73/47 49/72/47
f 24/29/47 25/30/47 49/72/47
f 33/73/48 32/74/48 50/75/48
f 49/72/48 33/73/48 50/75/48
f 32/74/49 31/76/49 51/77/49
f 50/75/49 32/74/49 51/77/49
f 30/78/50 52/79/50 51/80/50
f 31/81/50 30/78/50 51/80/50
f 29/82/51 53/83/51 52/79/51
f 30/78/51 29/82/51 52/79/51
f 54/84/52 53/85/52 28/86/52
f 28/86/52 53/85/52 29/87/52
f 55/88/53 54/84/53 27/89/53
f 27/89/53 54/84/53 28/86/53
f 34/45/54 55/88/54 26/47/54
f 26/47/54 55/88/54 27/89/54
f 34/45/55 37/52/55 55/88/55
f 34/45/56 35/49/56 37/52/56
f 37/52/57 54/84/57 55/88/57
f 37/52/58 56/90/58 54/84/58
f 37/52/59 57/91/59 56/90/59
f 36/51/60 57/91/60 37/52/60
f 38/53/61 58/92/61 36/51/61
f 36/51/61 58/92/61 57/91/61
f 41/93/62 58/92/62 39/54/62
f 39/54/62 58/92/62 38/53/62
f 40/57/63 59/94/63 41/58/63
f 41/58/64 60/95/64 58/96/64
f 41/58/64 59/94/64 60/95/64
f 40/57/65 61/97/65 62/98/65
f 40/57/65 42/61/65 61/97/65
f 40/57/63 62/98/63 59/94/63
f 42/61/40 43/65/40 61/97/40
f 62/98/66 61/97/66 43/65/66
f 63/99/66 62/98/66 45/67/66
f 45/67/66 62/98/66 43/65/66
f 64/100/66 62/98/66 63/99/66
f 65/101/66 62/98/66 64/100/66
f 66/102/66 62/98/66 65/101/66
f 60/95/66 62/98/66 66/102/66
f 59/94/66 62/98/66 60/95/66
f 45/67/67 67/103/67 63/99/67
f 45/67/67 44/66/67 67/103/67
f 44/69/68 68/104/68 69/105/68
f 67/106/69 44/69/69 69/105/69
f 44/69/70 46/68/70 70/107/70
f 68/104/70 44/69/70 70/107/70
f 46/68/71 48/71/71 70/107/71
f 47/70/72 48/71/72 46/68/72
f 48/71/73 71/108/73 72/109/73
f 70/107/73 48/71/73 72/109/73
f 48/71/74 49/72/74 71/108/74
f 71/108/75 49/72/75 73/110/75
f 49/72/76 50/75/76 73/110/76
f 50/75/77 51/77/77 73/110/77
f 73/111/78 51/80/78 74/112/78
f 75/113/79 74/112/79 51/80/79
f 52/79/80 75/113/80 51/80/80
f 53/83/81 75/113/81 52/79/81
f 76/114/82 75/113/82 53/83/82
f 77/115/83 76/114/83 53/83/83
f 54/84/84 77/116/84 53/85/84
f 54/84/85 78/117/85 77/116/85
f 56/90/86 78/117/86 54/84/86
f 79/118/87 78/117/87 57/91/87
f 57/91/87 78/117/87 56/90/87
f 58/92/88 80/119/88 57/91/88
f 57/91/88 80/119/88 79/118/88
f 58/96/89 60/95/89 66/102/89
f 80/120/89 58/96/89 66/102/89
f 66/102/90 81/121/90 80/120/90
f 66/102/90 65/101/90 81/121/90
f 65/101/91 64/100/91 82/122/91
f 65/101/91 82/122/91 81/121/91
f 63/99/92 82/122/92 64/100/92
f 63/99/92 67/103/92 82/122/92
f 67/103/93 69/123/93 83/124/93
f 82/122/93 67/103/93 83/124/93
f 69/125/94 72/126/94 83/127/94
f 68/104/95 72/109/95 69/105/95
f 68/104/96 70/107/96 72/109/96
f 72/126/97 73/111/97 74/112/97
f 84/128/97 72/126/97 74/112/97
f 71/108/98 73/110/98 72/109/98
f 72/126/99 84/128/99 83/127/99
f 85/129/100 84/128/100 74/112/100
f 75/113/100 85/129/100 74/112/100
f 76/114/101 85/129/101 75/113/101
f 86/130/102 85/129/102 77/115/102
f 77/115/102 85/129/102 76/114/102
f 79/118/103 86/131/103 77/116/103
f 79/118/104 77/116/104 78/117/104
f 87/132/105 86/131/105 80/119/105
f 80/119/105 86/131/105 79/118/105
f 81/133/106 88/134/106 80/135/106
f 80/135/107 88/134/107 87/136/107
f 81/121/108 82/122/108 83/124/108
f 88/137/109 81/121/109 83/124/109
f 88/134/110 83/127/110 85/129/110
f 83/127/111 84/128/111 85/129/111
f 87/136/112 88/134/112 85/129/112
f 87/136/113 85/129/113 86/130/113
